<svg width="68" height="32" viewBox="0 0 68 32" fill="none" xmlns="http://www.w3.org/2000/svg">
<rect width="68" height="32" rx="8" fill="#285CE3" fill-opacity="0.2"/>
<g clip-path="url(#clip0_1_495)">
<path d="M13.5 19.4751L10.025 16.0001L8.84167 17.1751L13.5 21.8334L23.5 11.8334L22.325 10.6584L13.5 19.4751Z" fill="black"/>
</g>
<path d="M32.6761 12.4119V11.3182H40.3125V12.4119H37.1108V21.5H35.8778V12.4119H32.6761ZM42.0563 21.5V13.8636H43.2296V21.5H42.0563ZM42.6529 12.5909C42.4242 12.5909 42.227 12.513 42.0613 12.3572C41.8989 12.2015 41.8176 12.0142 41.8176 11.7955C41.8176 11.5767 41.8989 11.3894 42.0613 11.2337C42.227 11.0779 42.4242 11 42.6529 11C42.8816 11 43.0771 11.0779 43.2395 11.2337C43.4052 11.3894 43.4881 11.5767 43.4881 11.7955C43.4881 12.0142 43.4052 12.2015 43.2395 12.3572C43.0771 12.513 42.8816 12.5909 42.6529 12.5909ZM48.6996 13.8636V14.858H44.7422V13.8636H48.6996ZM45.8956 12.0341H47.0689V19.3125C47.0689 19.6439 47.117 19.8925 47.2131 20.0582C47.3125 20.2206 47.4384 20.33 47.5909 20.3864C47.7467 20.4394 47.9107 20.4659 48.0831 20.4659C48.2124 20.4659 48.3184 20.4593 48.4013 20.446C48.4841 20.4295 48.5504 20.4162 48.6001 20.4062L48.8388 21.4602C48.7592 21.4901 48.6482 21.5199 48.5057 21.5497C48.3632 21.5829 48.1825 21.5994 47.9638 21.5994C47.6323 21.5994 47.3075 21.5282 46.9893 21.3857C46.6745 21.2431 46.4126 21.026 46.2038 20.7344C45.9983 20.4427 45.8956 20.0748 45.8956 19.6307V12.0341ZM51.8018 11.3182V21.5H50.6286V11.3182H51.8018ZM57.1525 21.6591C56.4167 21.6591 55.782 21.4967 55.2484 21.1719C54.7181 20.8438 54.3088 20.3864 54.0204 19.7997C53.7354 19.2098 53.5929 18.5237 53.5929 17.7415C53.5929 16.9593 53.7354 16.2699 54.0204 15.6733C54.3088 15.0734 54.7098 14.6061 55.2235 14.2713C55.7406 13.9332 56.3438 13.7642 57.0332 13.7642C57.4309 13.7642 57.8237 13.8305 58.2115 13.9631C58.5993 14.0956 58.9522 14.3111 59.2704 14.6094C59.5886 14.9044 59.8422 15.2955 60.0311 15.7827C60.22 16.2699 60.3145 16.8698 60.3145 17.5824V18.0795H54.4281V17.0653H59.1213C59.1213 16.6345 59.0351 16.25 58.8627 15.9119C58.6937 15.5739 58.4518 15.3071 58.1369 15.1115C57.8253 14.916 57.4574 14.8182 57.0332 14.8182C56.5659 14.8182 56.1615 14.9342 55.8201 15.1662C55.4821 15.3949 55.2219 15.6932 55.0396 16.0611C54.8573 16.429 54.7662 16.8234 54.7662 17.2443V17.9205C54.7662 18.4972 54.8656 18.986 55.0645 19.3871C55.2666 19.7848 55.5467 20.0881 55.9047 20.2969C56.2626 20.5024 56.6786 20.6051 57.1525 20.6051C57.4608 20.6051 57.7392 20.562 57.9877 20.4759C58.2396 20.3864 58.4567 20.2538 58.639 20.0781C58.8213 19.8991 58.9622 19.6771 59.0616 19.4119L60.1951 19.7301C60.0758 20.1146 59.8753 20.4527 59.5936 20.7443C59.3118 21.0327 58.9638 21.258 58.5495 21.4205C58.1352 21.5795 57.6696 21.6591 57.1525 21.6591Z" fill="black"/>
<defs>
<clipPath id="clip0_1_495">
<rect width="20" height="20" fill="white" transform="translate(6 6)"/>
</clipPath>
</defs>
</svg>
