<svg width="48" height="48" viewBox="0 0 48 48" fill="none" xmlns="http://www.w3.org/2000/svg">
<g clip-path="url(#clip0_91_1613)">
<path d="M24.2548 8.16448L28.3972 19.8759L42.1474 20.0016L30.9573 27.114L35.0997 38.8254L24.0415 31.5097L12.8514 38.6221L17.2071 26.9883L6.14889 19.6726L19.8991 19.7983L24.2548 8.16448Z" fill="black"/>
<path d="M44 18.48L29.62 17.24L24 4L18.38 17.26L4 18.48L14.92 27.94L11.64 42L24 34.54L36.36 42L33.1 27.94L44 18.48ZM24 30.8L16.48 35.34L18.48 26.78L11.84 21.02L20.6 20.26L24 12.2L27.42 20.28L36.18 21.04L29.54 26.8L31.54 35.36L24 30.8Z" fill="black"/>
</g>
<defs>
<clipPath id="clip0_91_1613">
<rect width="48" height="48" fill="white"/>
</clipPath>
</defs>
</svg>
